<svg width="48" height="48" viewBox="0 0 48 48" fill="none" xmlns="http://www.w3.org/2000/svg">
<rect width="48" height="48" rx="24" fill="#7F8A9D"/>
<path fill-rule="evenodd" clip-rule="evenodd" d="M31.4224 46.8278C29.0848 47.5881 26.5901 47.9991 23.9999 47.9991C21.408 47.9991 18.9117 47.5875 16.5727 46.8263C17.6532 46.9557 18.0524 46.2523 18.0524 45.6449C18.0524 45.3805 18.0479 44.9141 18.0419 44.2902C18.0349 43.5683 18.0259 42.6355 18.0194 41.5606C11.3429 43.012 9.93444 38.3409 9.93444 38.3409C8.84394 35.5671 7.27044 34.8285 7.27044 34.8285C5.09094 33.3379 7.43544 33.3681 7.43544 33.3681C9.84294 33.5378 11.1104 35.8433 11.1104 35.8433C13.2524 39.5134 16.7279 38.4538 18.0959 37.8382C18.3134 36.2862 18.9344 35.2277 19.6199 34.6274C14.2904 34.0211 8.68794 31.9616 8.68794 22.7588C8.68794 20.1363 9.62244 17.9931 11.1584 16.3133C10.9109 15.7056 10.0874 13.2648 11.3924 9.95796C11.3924 9.95796 13.4084 9.31245 17.9924 12.4197C19.9079 11.8867 21.9599 11.6213 24.0014 11.6104C26.0399 11.6209 28.0934 11.8867 30.0104 12.4197C34.5914 9.31245 36.6029 9.95796 36.6029 9.95796C37.9124 13.2648 37.0889 15.7056 36.8414 16.3133C38.3804 17.9931 39.3089 20.1363 39.3089 22.7588C39.3089 31.984 33.6974 34.0151 28.3514 34.6095C29.2124 35.351 29.9804 36.8159 29.9804 39.0571C29.9804 41.204 29.967 43.073 29.9581 44.3115C29.9537 44.9252 29.9504 45.3841 29.9504 45.6453C29.9504 46.2555 30.34 46.9604 31.4224 46.8278Z" fill="white"/>
</svg>
