<svg width="48" height="48" viewBox="0 0 48 48" fill="none" xmlns="http://www.w3.org/2000/svg">
<rect width="48" height="48" rx="24" fill="#7F8A9D"/>
<path d="M38.5 35.6571L36.3307 33.4857C36.1024 33.3714 35.9882 33.0286 35.9882 32.8V15.4286C35.9882 15.2 36.1024 14.8571 36.3307 14.6286L38.5 12.1143V12H30.7362L24.9134 26.7429L18.2913 12H10.2992V12.1143L12.3543 14.9714C12.811 15.4286 12.9252 16.1143 12.9252 16.6857V29.2571C13.0394 29.9429 12.9252 30.7429 12.5827 31.4286L9.5 35.6571V35.7714H17.7205V35.6571L14.6378 31.5429C14.2953 30.8571 14.1811 30.1714 14.2953 29.3714V17.9429C14.4094 18.1714 14.5236 18.1714 14.6378 18.6286L22.4016 36H22.5157L30.0512 17.1429C29.937 17.8286 29.937 18.6286 29.937 19.2V32.6857C29.937 33.0286 29.8228 33.2571 29.5945 33.4857L27.311 35.6571V35.7714H38.5V35.6571Z" fill="white"/>
</svg>
