<svg width="48" height="48" viewBox="0 0 48 48" fill="none" xmlns="http://www.w3.org/2000/svg">
<rect width="48" height="48" rx="24" fill="#7F8A9D"/>
<path fill-rule="evenodd" clip-rule="evenodd" d="M39.3759 22.1162C39.7639 22.6698 39.9835 23.3238 40.0082 23.9993C40.0184 24.6606 39.8413 25.3113 39.4973 25.8761C39.1533 26.441 38.6564 26.8969 38.0642 27.1913C38.0912 27.5428 38.0912 27.8958 38.0642 28.2473C38.0642 33.6233 31.8002 37.9913 24.0722 37.9913C16.3442 37.9913 10.0802 33.6233 10.0802 28.2473C10.0532 27.8958 10.0532 27.5428 10.0802 27.1913C9.61858 26.9792 9.2086 26.6693 8.87867 26.283C8.54873 25.8967 8.30674 25.4433 8.16945 24.9542C8.03216 24.4651 8.00286 23.952 8.08358 23.4505C8.16431 22.9489 8.35312 22.4709 8.63695 22.0496C8.92077 21.6283 9.29281 21.2737 9.72728 21.0105C10.1618 20.7472 10.6483 20.5816 11.1531 20.525C11.658 20.4685 12.1691 20.5224 12.651 20.6831C13.133 20.8437 13.5742 21.1072 13.9442 21.4553C16.7097 19.5798 19.9631 18.5537 23.3042 18.5033L25.0802 10.1753C25.1001 10.0789 25.139 9.98741 25.1946 9.90613C25.2502 9.82486 25.3213 9.75542 25.4039 9.70184C25.4865 9.64827 25.5789 9.61162 25.6758 9.59402C25.7726 9.57642 25.872 9.57822 25.9682 9.59931L31.8482 10.7753C32.1354 10.282 32.5889 9.90712 33.1276 9.71806C33.6662 9.529 34.2545 9.53811 34.7871 9.74376C35.3196 9.94941 35.7613 10.3381 36.0331 10.8401C36.3048 11.3421 36.3887 11.9246 36.2697 12.4828C36.1507 13.0411 35.8367 13.5388 35.3839 13.8863C34.9311 14.2339 34.3692 14.4088 33.7991 14.3794C33.229 14.3501 32.6881 14.1185 32.2733 13.7263C31.8586 13.3341 31.5973 12.8069 31.5362 12.2393L26.4002 11.1593L24.8402 18.6473C28.1407 18.7181 31.35 19.7434 34.0802 21.5993C34.5679 21.1312 35.1806 20.8142 35.8445 20.6865C36.5083 20.5587 37.1949 20.6257 37.8215 20.8794C38.4481 21.1331 38.9879 21.5626 39.3759 22.1162ZM29.5314 28.7962C30.8561 28.7962 31.9299 27.7224 31.9299 26.3978C31.9299 25.0731 30.8561 23.9993 29.5314 23.9993C28.2068 23.9993 27.133 25.0731 27.133 26.3978C27.133 27.7224 28.2068 28.7962 29.5314 28.7962ZM20.8127 26.3978C20.8127 27.7224 19.7389 28.7962 18.4143 28.7962C17.0896 28.7962 16.0158 27.7224 16.0158 26.3978C16.0158 25.0731 17.0896 23.9993 18.4143 23.9993C19.7389 23.9993 20.8127 25.0731 20.8127 26.3978ZM24.0238 33.5705L24.012 33.5706L24.0002 33.5705V33.5707C22.2896 33.5811 21.0247 33.1978 20.1968 32.8224C19.7797 32.6333 19.472 32.4454 19.2731 32.309C19.1737 32.2408 19.1017 32.1856 19.0569 32.1498C19.0346 32.1318 19.0191 32.1187 19.0104 32.1113L19.0034 32.1052C19.0031 32.105 19.0029 32.1047 19.0027 32.1045C18.7383 31.8638 18.3288 31.8819 18.0866 32.1454C17.8437 32.4098 17.861 32.8209 18.1253 33.0638L18.1264 33.0648L18.1276 33.0659L18.1305 33.0685L18.1384 33.0756L18.1624 33.0966C18.1821 33.1136 18.2091 33.1362 18.2435 33.1638C18.3121 33.2189 18.4103 33.2936 18.5379 33.3811C18.7932 33.5562 19.167 33.7828 19.6599 34.0064C20.6434 34.4523 22.0947 34.8829 24.012 34.8707C25.9294 34.8829 27.3807 34.4523 28.3641 34.0064C28.857 33.7828 29.2309 33.5562 29.4861 33.3811C29.6138 33.2936 29.7119 33.2189 29.7806 33.1638C29.8149 33.1362 29.8419 33.1136 29.8616 33.0966L29.8856 33.0756L29.8935 33.0685L29.8965 33.0659L29.8977 33.0648L29.8987 33.0638C30.163 32.8209 30.1804 32.4098 29.9375 32.1454C29.6953 31.8819 29.2858 31.8638 29.0214 32.1045L29.0207 32.1052L29.0136 32.1113C29.005 32.1187 28.9895 32.1318 28.9671 32.1498C28.9224 32.1856 28.8503 32.2408 28.7509 32.309C28.5521 32.4454 28.2443 32.6333 27.8272 32.8224C26.9994 33.1978 25.7345 33.5811 24.0238 33.5707V33.5705Z" fill="white"/>
</svg>
